<mxfile host="65bd71144e">
    <diagram id="YytNtICP-ASlZZwoqKIY" name="Page-1">
        <mxGraphModel dx="1626" dy="787" grid="1" gridSize="10" guides="1" tooltips="1" connect="1" arrows="1" fold="1" page="1" pageScale="1" pageWidth="850" pageHeight="1100" math="0" shadow="0">
            <root>
                <mxCell id="0"/>
                <mxCell id="1" parent="0"/>
                <mxCell id="6" style="edgeStyle=none;html=1;entryX=0;entryY=0.5;entryDx=0;entryDy=0;" edge="1" parent="1" source="2" target="5">
                    <mxGeometry relative="1" as="geometry"/>
                </mxCell>
                <mxCell id="13" style="edgeStyle=none;html=1;entryX=0;entryY=0.5;entryDx=0;entryDy=0;" edge="1" parent="1" source="2" target="9">
                    <mxGeometry relative="1" as="geometry"/>
                </mxCell>
                <mxCell id="2" value="Bluestone Command&amp;nbsp; Interface" style="rounded=0;whiteSpace=wrap;html=1;" vertex="1" parent="1">
                    <mxGeometry x="160" y="270" width="120" height="60" as="geometry"/>
                </mxCell>
                <mxCell id="4" value="Plain English" style="edgeStyle=none;html=1;" edge="1" parent="1" source="3" target="2">
                    <mxGeometry relative="1" as="geometry"/>
                </mxCell>
                <mxCell id="3" value="Software&lt;br&gt;Engineer&lt;br&gt;in Test" style="shape=umlActor;verticalLabelPosition=bottom;verticalAlign=top;html=1;outlineConnect=0;" vertex="1" parent="1">
                    <mxGeometry x="40" y="270" width="30" height="60" as="geometry"/>
                </mxCell>
                <mxCell id="8" style="edgeStyle=none;html=1;" edge="1" parent="1" source="5" target="7">
                    <mxGeometry relative="1" as="geometry"/>
                </mxCell>
                <mxCell id="12" value="" style="edgeStyle=none;html=1;" edge="1" parent="1" source="5" target="11">
                    <mxGeometry relative="1" as="geometry"/>
                </mxCell>
                <mxCell id="5" value="Web Page Capture Layer" style="rounded=0;whiteSpace=wrap;html=1;" vertex="1" parent="1">
                    <mxGeometry x="340" y="230" width="120" height="60" as="geometry"/>
                </mxCell>
                <mxCell id="7" value="Web Page" style="shape=note;whiteSpace=wrap;html=1;backgroundOutline=1;darkOpacity=0.05;" vertex="1" parent="1">
                    <mxGeometry x="360" y="90" width="80" height="100" as="geometry"/>
                </mxCell>
                <mxCell id="15" value="" style="edgeStyle=none;html=1;" edge="1" parent="1" source="9" target="14">
                    <mxGeometry relative="1" as="geometry"/>
                </mxCell>
                <mxCell id="9" value="Natural Langeua Prosesing Layer" style="rounded=0;whiteSpace=wrap;html=1;" vertex="1" parent="1">
                    <mxGeometry x="340" y="320" width="120" height="60" as="geometry"/>
                </mxCell>
                <mxCell id="17" style="edgeStyle=none;html=1;entryX=0;entryY=0.5;entryDx=0;entryDy=0;" edge="1" parent="1" source="11" target="16">
                    <mxGeometry relative="1" as="geometry"/>
                </mxCell>
                <mxCell id="11" value="Web Page Encoding Layer" style="rounded=0;whiteSpace=wrap;html=1;" vertex="1" parent="1">
                    <mxGeometry x="540" y="230" width="120" height="60" as="geometry"/>
                </mxCell>
                <mxCell id="18" style="edgeStyle=none;html=1;" edge="1" parent="1" source="14" target="16">
                    <mxGeometry relative="1" as="geometry"/>
                </mxCell>
                <mxCell id="14" value="Language Encoding Layer" style="rounded=0;whiteSpace=wrap;html=1;" vertex="1" parent="1">
                    <mxGeometry x="540" y="320" width="120" height="60" as="geometry"/>
                </mxCell>
                <mxCell id="20" value="" style="edgeStyle=none;html=1;" edge="1" parent="1" source="16" target="19">
                    <mxGeometry relative="1" as="geometry"/>
                </mxCell>
                <mxCell id="16" value="Large Language Modelling Logistics Layer" style="rounded=0;whiteSpace=wrap;html=1;" vertex="1" parent="1">
                    <mxGeometry x="720" y="280" width="120" height="60" as="geometry"/>
                </mxCell>
                <mxCell id="22" value="" style="edgeStyle=none;html=1;" edge="1" parent="1" source="19" target="21">
                    <mxGeometry relative="1" as="geometry"/>
                </mxCell>
                <mxCell id="19" value="Model &amp;amp; Function Logic Mapping Layer" style="rounded=0;whiteSpace=wrap;html=1;" vertex="1" parent="1">
                    <mxGeometry x="890" y="280" width="120" height="60" as="geometry"/>
                </mxCell>
                <mxCell id="24" value="" style="edgeStyle=none;html=1;entryX=0;entryY=0.5;entryDx=0;entryDy=0;" edge="1" parent="1" source="21" target="25">
                    <mxGeometry relative="1" as="geometry">
                        <mxPoint x="1290" y="310" as="targetPoint"/>
                    </mxGeometry>
                </mxCell>
                <mxCell id="21" value="UI automation code generation layer" style="rounded=0;whiteSpace=wrap;html=1;" vertex="1" parent="1">
                    <mxGeometry x="1090" y="280" width="120" height="60" as="geometry"/>
                </mxCell>
                <mxCell id="37" value="" style="edgeStyle=none;html=1;" edge="1" parent="1" source="25" target="36">
                    <mxGeometry relative="1" as="geometry"/>
                </mxCell>
                <mxCell id="25" value="Software Code Base" style="swimlane;whiteSpace=wrap;html=1;" vertex="1" parent="1">
                    <mxGeometry x="1290" y="210" width="130" height="200" as="geometry"/>
                </mxCell>
                <mxCell id="26" value="Line 1" style="text;html=1;strokeColor=none;fillColor=none;align=center;verticalAlign=middle;whiteSpace=wrap;rounded=0;" vertex="1" parent="25">
                    <mxGeometry x="10" y="30" width="60" height="30" as="geometry"/>
                </mxCell>
                <mxCell id="27" value="Line 2" style="text;html=1;strokeColor=none;fillColor=none;align=center;verticalAlign=middle;whiteSpace=wrap;rounded=0;" vertex="1" parent="25">
                    <mxGeometry x="10" y="60" width="60" height="30" as="geometry"/>
                </mxCell>
                <mxCell id="28" value="Line 3" style="text;html=1;strokeColor=none;fillColor=none;align=center;verticalAlign=middle;whiteSpace=wrap;rounded=0;" vertex="1" parent="25">
                    <mxGeometry x="10" y="90" width="60" height="30" as="geometry"/>
                </mxCell>
                <mxCell id="29" value="Line ..." style="text;html=1;strokeColor=none;fillColor=none;align=center;verticalAlign=middle;whiteSpace=wrap;rounded=0;" vertex="1" parent="25">
                    <mxGeometry x="10" y="120" width="60" height="30" as="geometry"/>
                </mxCell>
                <mxCell id="40" style="edgeStyle=none;html=1;" edge="1" parent="1" source="36" target="39">
                    <mxGeometry relative="1" as="geometry"/>
                </mxCell>
                <mxCell id="36" value="Code Runner" style="whiteSpace=wrap;html=1;fontStyle=1;startSize=23;" vertex="1" parent="1">
                    <mxGeometry x="1505" y="280" width="120" height="60" as="geometry"/>
                </mxCell>
                <mxCell id="39" value="Web Page" style="shape=note;whiteSpace=wrap;html=1;backgroundOutline=1;darkOpacity=0.05;" vertex="1" parent="1">
                    <mxGeometry x="1690" y="260" width="80" height="100" as="geometry"/>
                </mxCell>
            </root>
        </mxGraphModel>
    </diagram>
</mxfile>